<svg width="81" height="81" viewBox="0 0 81 81" fill="none" xmlns="http://www.w3.org/2000/svg">
<path d="M32.0625 32.4121C32.6973 30.6076 33.9502 29.086 35.5994 28.1167C37.2485 27.1475 39.1875 26.7932 41.0729 27.1166C42.9582 27.44 44.6683 28.4202 45.9002 29.8836C47.1321 31.347 47.8063 33.1992 47.8035 35.1121C47.8035 40.5121 43.8923 39.8289 40.932 43.2121C40.2955 43.9395 39.9195 45.2371 39.9195 45.2371M39.9195 54.0121H39.9465M67.4999 40.5C67.5108 44.6925 66.5313 48.8283 64.6411 52.5705C62.3999 57.0549 58.9544 60.8267 54.6907 63.4635C50.4269 66.1003 45.5132 67.498 40.5 67.4999C37.0492 67.5089 33.6368 66.8469 30.4506 65.5583C29.1137 65.0176 27.6623 64.771 26.2405 65.0119L19.3362 65.7473C16.9839 65.9978 15.0004 64.0139 15.2514 61.6617L15.9881 54.7595C16.229 53.3377 15.9824 51.8863 15.4417 50.5494C14.1531 47.3633 13.4911 43.9508 13.5001 40.5C13.502 35.4868 14.8997 30.5731 17.5365 26.3093C20.1733 22.0456 23.9451 18.6001 28.4295 16.3589C32.1717 14.4687 36.3075 13.4892 40.5 13.5001H42.0882C48.7091 13.8654 54.9626 16.6599 59.6513 21.3487C64.3401 26.0374 67.1346 32.2909 67.4999 38.9118V40.5Z" stroke="#C4C4C4" stroke-width="4" stroke-linecap="round" stroke-linejoin="round"/>
</svg>
