<svg width="88" height="88" viewBox="0 0 88 88" fill="none" xmlns="http://www.w3.org/2000/svg">
<path fill-rule="evenodd" clip-rule="evenodd" d="M43.625 75.25C26.1591 75.25 12 61.0909 12 43.625C12 26.1591 26.1591 12 43.625 12C61.0909 12 75.25 26.1591 75.25 43.625C75.25 61.0909 61.0909 75.25 43.625 75.25ZM43.4531 27.3897C52.7667 27.3897 55.9691 33.6263 58.5774 38.1102C62.2892 44.4902 62.6787 48.8194 70.9143 52.1586C71.8125 47.8256 71.8125 48.2897 71.8125 43.4531C71.8125 27.7908 59.1154 15.0938 43.4531 15.0938C27.7908 15.0938 15.0938 27.7908 15.0938 43.4531C15.0938 47.4441 14.5427 48.1257 15.97 52.1586C23.1733 49.7912 26.543 42.1238 27.8878 38.7028C29.7873 33.8711 34.1396 27.39 43.4531 27.39V27.3897ZM43.625 35.8511C37.7372 35.8511 32.9093 46.8587 31.6182 49.4911C30.327 52.1239 25.9174 58.2378 19.8255 59.7699C24.9068 67.407 33.5923 72.4398 43.4531 72.4398C53.2321 72.4398 61.8547 67.4905 66.9533 59.96C61.8547 56.2551 59.1704 54.6955 55.427 49.4911C52.3353 45.1928 49.5127 35.8511 43.625 35.8511Z" fill="white"/>
</svg>
