<svg width="88" height="88" viewBox="0 0 88 88" fill="none" xmlns="http://www.w3.org/2000/svg">
<path fill-rule="evenodd" clip-rule="evenodd" d="M44 75.625C26.5341 75.625 12.375 61.4659 12.375 44C12.375 26.5341 26.5341 12.375 44 12.375C61.4659 12.375 75.625 26.5341 75.625 44C75.625 61.4659 61.4659 75.625 44 75.625ZM43.8281 27.7647C53.1417 27.7647 56.3441 34.0013 58.9524 38.4852C62.6642 44.8652 63.0537 49.1944 71.2893 52.5336C72.1875 48.2006 72.1875 48.6647 72.1875 43.8281C72.1875 28.1658 59.4904 15.4688 43.8281 15.4688C28.1658 15.4688 15.4688 28.1658 15.4688 43.8281C15.4688 47.8191 14.9177 48.5007 16.345 52.5336C23.5483 50.1662 26.918 42.4988 28.2628 39.0778C30.1623 34.2461 34.5146 27.765 43.8281 27.765V27.7647ZM44 36.2261C38.1122 36.2261 33.2843 47.2337 31.9932 49.8661C30.702 52.4989 26.2924 58.6128 20.2005 60.1449C25.2818 67.782 33.9673 72.8148 43.8281 72.8148C53.6071 72.8148 62.2297 67.8655 67.3283 60.335C62.2297 56.6301 59.5454 55.0705 55.802 49.8661C52.7103 45.5678 49.8877 36.2261 44 36.2261Z" fill="#3276E8"/>
</svg>
